<svg width="28" height="28" viewBox="0 0 28 28" fill="none" xmlns="http://www.w3.org/2000/svg">
<path fill-rule="evenodd" clip-rule="evenodd" d="M9.99874 4.00032C10.216 4.00037 10.4274 4.07119 10.6008 4.20207C10.7742 4.33295 10.9003 4.51677 10.96 4.72572L12.044 8.52069C12.2773 9.33798 12.7152 10.0823 13.3161 10.6833C13.9171 11.2843 14.6613 11.7222 15.4784 11.9556L19.2729 13.0397C19.4817 13.0995 19.6653 13.2257 19.796 13.3992C19.9268 13.5726 19.9975 13.7839 19.9975 14.0011C19.9975 14.2183 19.9268 14.4296 19.796 14.6031C19.6653 14.7766 19.4817 14.9027 19.2729 14.9625L15.4784 16.0466C14.6613 16.2801 13.9171 16.718 13.3161 17.319C12.7152 17.92 12.2773 18.6643 12.044 19.4816L10.96 23.2766C10.9002 23.4854 10.7741 23.669 10.6006 23.7998C10.4272 23.9305 10.2159 24.0012 9.99874 24.0012C9.78156 24.0012 9.57028 23.9305 9.39685 23.7998C9.22342 23.669 9.09726 23.4854 9.03746 23.2766L7.95352 19.4816C7.72013 18.6643 7.28229 17.92 6.68135 17.319C6.08042 16.718 5.33621 16.2801 4.51903 16.0466L0.724573 14.9625C0.515791 14.9027 0.332157 14.7766 0.201432 14.6031C0.0707073 14.4296 0 14.2183 0 14.0011C0 13.7839 0.0707073 13.5726 0.201432 13.3992C0.332157 13.2257 0.515791 13.0995 0.724573 13.0397L4.51903 11.9556C5.33621 11.7222 6.08042 11.2843 6.68135 10.6833C7.28229 10.0823 7.72013 9.33798 7.95352 8.52069L9.03746 4.72572C9.09713 4.51677 9.22323 4.33295 9.39668 4.20207C9.57012 4.07119 9.78146 4.00037 9.99874 4.00032ZM21.9981 1.55195e-07C22.2212 -0.000124092 22.4379 0.0743579 22.6138 0.211599C22.7896 0.34884 22.9146 0.540958 22.9687 0.757395L23.3127 2.13884C23.6273 3.39228 24.6059 4.37102 25.8592 4.68571L27.2405 5.02974C27.4573 5.08345 27.6499 5.20823 27.7875 5.38417C27.9252 5.56011 28 5.77708 28 6.00049C28 6.22389 27.9252 6.44086 27.7875 6.6168C27.6499 6.79274 27.4573 6.91752 27.2405 6.97123L25.8592 7.31526C24.6059 7.62995 23.6273 8.6087 23.3127 9.86213L22.9687 11.2436C22.915 11.4604 22.7902 11.6531 22.6143 11.7907C22.4384 11.9284 22.2215 12.0032 21.9981 12.0032C21.7747 12.0032 21.5578 11.9284 21.3819 11.7907C21.2059 11.6531 21.0812 11.4604 21.0275 11.2436L20.6835 9.86213C20.5296 9.24666 20.2114 8.68457 19.7629 8.23597C19.3144 7.78737 18.7524 7.46912 18.137 7.31526L16.7557 6.97123C16.5389 6.91752 16.3463 6.79274 16.2086 6.6168C16.071 6.44086 15.9962 6.22389 15.9962 6.00049C15.9962 5.77708 16.071 5.56011 16.2086 5.38417C16.3463 5.20823 16.5389 5.08345 16.7557 5.02974L18.137 4.68571C18.7524 4.53185 19.3144 4.21361 19.7629 3.76501C20.2114 3.3164 20.5296 2.75432 20.6835 2.13884L21.0275 0.757395C21.0816 0.540958 21.2065 0.34884 21.3824 0.211599C21.5583 0.0743579 21.775 -0.000124092 21.9981 1.55195e-07ZM19.9982 18.0015C20.2082 18.0013 20.4129 18.0674 20.5833 18.1901C20.7537 18.3129 20.8811 18.4862 20.9475 18.6855L21.4728 20.263C21.6728 20.859 22.1394 21.3284 22.7367 21.5271L24.314 22.0538C24.5126 22.1205 24.6852 22.2479 24.8075 22.418C24.9299 22.5881 24.9957 22.7923 24.9957 23.0019C24.9957 23.2114 24.9299 23.4156 24.8075 23.5858C24.6852 23.7559 24.5126 23.8833 24.314 23.9499L22.7367 24.4767C22.1407 24.6767 21.6714 25.1434 21.4728 25.7408L20.9461 27.3182C20.8795 27.5169 20.7521 27.6895 20.582 27.8119C20.4119 27.9342 20.2077 28 19.9982 28C19.7887 28 19.5845 27.9342 19.4144 27.8119C19.2443 27.6895 19.1169 27.5169 19.0502 27.3182L18.5236 25.7408C18.4254 25.4464 18.2601 25.179 18.0407 24.9596C17.8213 24.7402 17.554 24.5749 17.2597 24.4767L15.6824 23.9499C15.4838 23.8833 15.3112 23.7559 15.1889 23.5858C15.0665 23.4156 15.0007 23.2114 15.0007 23.0019C15.0007 22.7923 15.0665 22.5881 15.1889 22.418C15.3112 22.2479 15.4838 22.1205 15.6824 22.0538L17.2597 21.5271C17.8556 21.3271 18.325 20.8604 18.5236 20.263L19.0502 18.6855C19.1165 18.4865 19.2437 18.3133 19.4139 18.1905C19.584 18.0678 19.7884 18.0016 19.9982 18.0015Z" fill="url(#paint0_linear_89_454)"/>
<defs>
<linearGradient id="paint0_linear_89_454" x1="2.5" y1="4" x2="46.5" y2="24.5" gradientUnits="userSpaceOnUse">
<stop stop-color="#DC97A2"/>
<stop offset="0.1279" stop-color="#D27274"/>
<stop offset="0.2463" stop-color="#CB5456"/>
<stop offset="0.3516" stop-color="#C73B43"/>
<stop offset="0.4397" stop-color="#C42838"/>
<stop offset="0.5" stop-color="#C32034"/>
<stop offset="1" stop-color="#250E36"/>
</linearGradient>
</defs>
</svg>
