<svg width="136" height="135" viewBox="0 0 136 135" fill="none" xmlns="http://www.w3.org/2000/svg">
<rect x="0.969604" width="134.061" height="134.061" rx="12" fill="white"/>
<path d="M83.1051 42.4025C85.8474 42.5026 88.5291 43.2365 90.9402 44.5466C93.3513 45.8568 95.4262 47.7076 97.0022 49.9539C96.6849 50.176 88.6893 54.8084 88.7845 64.4538C88.9114 75.9713 98.9059 79.8104 99.0011 79.8739C98.9376 80.1277 97.4147 85.3312 93.7342 90.6933C90.5613 95.3257 87.2616 99.958 82.0898 100.053C77.0133 100.148 75.3316 97.0073 69.5253 97.0073C63.6873 97.0073 61.847 99.958 57.0243 100.148C52.0429 100.339 48.2038 95.1353 45.0309 90.5029C38.4631 81.0478 33.4818 63.7875 40.1765 52.1114C41.7542 49.294 44.0374 46.9351 46.802 45.2664C49.5665 43.5976 52.7174 42.6763 55.9455 42.5929C60.8634 42.4977 65.4958 45.8927 68.51 45.8927C71.5242 45.8927 77.1719 41.7997 83.1051 42.4025ZM83.1686 24C83.4977 28.4148 82.0726 32.7813 79.2025 36.152C77.8595 37.8571 76.1423 39.2304 74.1837 40.1657C72.225 41.101 70.0775 41.5733 67.9072 41.5459C67.7564 39.4139 68.0354 37.2734 68.7276 35.2514C69.4198 33.2293 70.5111 31.3669 71.9367 29.7746C74.8047 26.4846 78.8241 24.4181 83.1686 24Z" fill="#A8B1B7"/>
</svg>
