<svg width="78" height="75" viewBox="0 0 78 75" fill="none" xmlns="http://www.w3.org/2000/svg">
<path d="M36.92 3.99588C37.0892 3.58321 37.3773 3.23018 37.7477 2.98172C38.1181 2.73326 38.554 2.60059 39 2.60059C39.4461 2.60059 39.882 2.73326 40.2524 2.98172C40.6228 3.23018 40.9109 3.58321 41.08 3.99588L49.58 24.4399C49.7392 24.8224 50.0007 25.1537 50.3359 25.3971C50.6712 25.6406 51.067 25.7869 51.48 25.8199L73.552 27.5879C75.548 27.7479 76.356 30.2399 74.836 31.5399L58.02 45.9479C57.7059 46.2166 57.4718 46.5667 57.3433 46.9597C57.2149 47.3527 57.1972 47.7735 57.292 48.1759L62.432 69.7159C62.5354 70.148 62.5083 70.6011 62.3542 71.0179C62.2002 71.4347 61.9261 71.7964 61.5666 72.0575C61.207 72.3186 60.7782 72.4673 60.3342 72.4848C59.8902 72.5023 59.451 72.3879 59.072 72.1559L40.172 60.6159C39.8191 60.4003 39.4136 60.2862 39 60.2862C38.5865 60.2862 38.1809 60.4003 37.828 60.6159L18.928 72.1599C18.5491 72.3919 18.1099 72.5063 17.6659 72.4888C17.2219 72.4713 16.793 72.3226 16.4335 72.0615C16.074 71.8004 15.7999 71.4387 15.6459 71.0219C15.4918 70.6051 15.4647 70.152 15.568 69.7199L20.708 48.1759C20.8034 47.7735 20.7858 47.3526 20.6574 46.9595C20.529 46.5664 20.2946 46.2164 19.98 45.9479L3.16405 31.5399C2.82542 31.2512 2.58007 30.8686 2.45908 30.4403C2.3381 30.0121 2.34691 29.5577 2.4844 29.1345C2.6219 28.7113 2.88189 28.3384 3.23145 28.0631C3.58101 27.7878 4.00442 27.6224 4.44805 27.5879L26.52 25.8199C26.933 25.7869 27.3289 25.6406 27.6642 25.3971C27.9994 25.1537 28.2609 24.8224 28.42 24.4399L36.92 3.99588Z" stroke="white" stroke-opacity="0.7" stroke-width="4" stroke-linecap="round" stroke-linejoin="round"/>
</svg>
