<svg width="59" height="75" viewBox="0 0 59 75" fill="none" xmlns="http://www.w3.org/2000/svg">
<path d="M43.0937 15.75C43.0937 19.3553 41.6615 22.8129 39.1122 25.3622C36.5629 27.9116 33.1053 29.3438 29.5 29.3438C25.8947 29.3438 22.4371 27.9116 19.8877 25.3622C17.3384 22.8129 15.9062 19.3553 15.9062 15.75C15.9062 12.1447 17.3384 8.68709 19.8877 6.13777C22.4371 3.58844 25.8947 2.15625 29.5 2.15625C33.1053 2.15625 36.5629 3.58844 39.1122 6.13777C41.6615 8.68709 43.0937 12.1447 43.0937 15.75ZM2.3161 66.9278C2.43259 59.795 5.34783 52.9938 10.4331 47.9909C15.5184 42.988 22.3663 40.1842 29.5 40.1842C36.6337 40.1842 43.4815 42.988 48.5668 47.9909C53.6521 52.9938 56.5674 59.795 56.6839 66.9278C48.1556 70.8383 38.882 72.8565 29.5 72.8438C19.7995 72.8438 10.592 70.7268 2.3161 66.9278Z" stroke="white" stroke-opacity="0.7" stroke-width="4" stroke-linecap="round" stroke-linejoin="round"/>
</svg>
