<svg width="59" height="59" viewBox="0 0 59 59" fill="none" xmlns="http://www.w3.org/2000/svg">
<path d="M29.5 11.25V29.5H43.1875M56.875 29.5C56.875 33.0949 56.1669 36.6547 54.7912 39.976C53.4155 43.2972 51.3991 46.315 48.857 48.857C46.315 51.3991 43.2972 53.4155 39.976 54.7912C36.6547 56.1669 33.0949 56.875 29.5 56.875C25.9051 56.875 22.3453 56.1669 19.024 54.7912C15.7028 53.4155 12.685 51.3991 10.143 48.857C7.60095 46.315 5.58452 43.2972 4.2088 39.976C2.83308 36.6547 2.125 33.0949 2.125 29.5C2.125 22.2397 5.00914 15.2768 10.143 10.143C15.2768 5.00914 22.2397 2.125 29.5 2.125C36.7603 2.125 43.7232 5.00914 48.857 10.143C53.9909 15.2768 56.875 22.2397 56.875 29.5Z" stroke="white" stroke-opacity="0.7" stroke-width="4" stroke-linecap="round" stroke-linejoin="round"/>
</svg>
