<svg width="71" height="68" viewBox="0 0 71 68" fill="none" xmlns="http://www.w3.org/2000/svg">
<path d="M28.9722 47.3965C28.122 45.3004 26.5694 43.5652 24.5804 42.488C22.5914 41.4108 20.2898 41.0586 18.0697 41.4919C15.8496 41.9252 13.8492 43.1168 12.4112 44.8629C10.9732 46.6089 10.1869 48.8005 10.1872 51.0625C10.1872 52.0639 9.98155 53.0545 9.58297 53.9732C9.18439 54.8918 8.60139 55.7187 7.8701 56.4028C7.13881 57.0869 6.27482 57.6134 5.33168 57.9499C4.38853 58.2863 3.38634 58.4255 2.38721 58.3588C3.99416 61.1503 6.47776 63.3333 9.45246 64.5689C12.4272 65.8044 15.7265 66.0233 18.8384 65.1916C21.9502 64.3599 24.7005 62.5242 26.6621 59.9694C28.6238 57.4145 29.6872 54.2836 29.6872 51.0625C29.6872 49.7657 29.4337 48.5275 28.9722 47.3965ZM28.9722 47.3965C32.8365 46.0799 36.5323 44.3127 39.9832 42.1315M23.5935 42.0502C24.9104 38.1777 26.6798 34.4742 28.865 31.0165M39.98 42.1315C46.1431 38.2375 51.4183 33.0908 55.463 27.0255L68.06 8.13C68.5425 7.41032 68.7603 6.54544 68.6761 5.68305C68.5918 4.82066 68.2109 4.01426 67.5981 3.40155C66.9854 2.78885 66.179 2.40785 65.3166 2.32363C64.4543 2.2394 63.5894 2.45717 62.8697 2.93975L43.9742 15.54C37.9081 19.5834 32.7603 24.8575 28.865 31.0197C33.8111 33.2313 37.7684 37.1886 39.98 42.1347" stroke="white" stroke-opacity="0.7" stroke-width="4" stroke-linecap="round" stroke-linejoin="round"/>
</svg>
