<svg width="95" height="27" viewBox="0 0 95 27" fill="none" xmlns="http://www.w3.org/2000/svg">
<path d="M9.6 21.872L14.08 8.272H18.848L12.288 26H6.848L0.32 8.272H5.12L9.6 21.872ZM23.6363 6.16C22.8469 6.16 22.1856 5.91467 21.6523 5.424C21.1403 4.912 20.8843 4.28267 20.8843 3.536C20.8843 2.78933 21.1403 2.17067 21.6523 1.68C22.1856 1.168 22.8469 0.911999 23.6363 0.911999C24.4256 0.911999 25.0763 1.168 25.5883 1.68C26.1216 2.17067 26.3883 2.78933 26.3883 3.536C26.3883 4.28267 26.1216 4.912 25.5883 5.424C25.0763 5.91467 24.4256 6.16 23.6363 6.16ZM25.8443 8.272V26H21.3643V8.272H25.8443ZM29.1185 17.072C29.1185 15.28 29.4705 13.6907 30.1745 12.304C30.8998 10.9173 31.8705 9.85067 33.0865 9.104C34.3238 8.35733 35.6998 7.984 37.2145 7.984C38.5372 7.984 39.6892 8.25067 40.6705 8.784C41.6732 9.31733 42.4732 9.98933 43.0705 10.8V8.272H47.5825V26H43.0705V23.408C42.4945 24.24 41.6945 24.9333 40.6705 25.488C39.6678 26.0213 38.5052 26.288 37.1825 26.288C35.6892 26.288 34.3238 25.904 33.0865 25.136C31.8705 24.368 30.8998 23.2907 30.1745 21.904C29.4705 20.496 29.1185 18.8853 29.1185 17.072ZM43.0705 17.136C43.0705 16.048 42.8572 15.12 42.4305 14.352C42.0038 13.5627 41.4278 12.9653 40.7025 12.56C39.9772 12.1333 39.1985 11.92 38.3665 11.92C37.5345 11.92 36.7665 12.1227 36.0625 12.528C35.3585 12.9333 34.7825 13.5307 34.3345 14.32C33.9078 15.088 33.6945 16.0053 33.6945 17.072C33.6945 18.1387 33.9078 19.0773 34.3345 19.888C34.7825 20.6773 35.3585 21.2853 36.0625 21.712C36.7878 22.1387 37.5558 22.352 38.3665 22.352C39.1985 22.352 39.9772 22.1493 40.7025 21.744C41.4278 21.3173 42.0038 20.72 42.4305 19.952C42.8572 19.1627 43.0705 18.224 43.0705 17.136ZM58.742 23.312L64.182 8.464H67.286L60.406 26H57.014L50.134 8.464H53.27L58.742 23.312ZM71.6555 5.616C71.1008 5.616 70.6315 5.424 70.2475 5.04C69.8635 4.656 69.6715 4.18667 69.6715 3.632C69.6715 3.07733 69.8635 2.608 70.2475 2.224C70.6315 1.84 71.1008 1.648 71.6555 1.648C72.1888 1.648 72.6368 1.84 72.9995 2.224C73.3835 2.608 73.5755 3.07733 73.5755 3.632C73.5755 4.18667 73.3835 4.656 72.9995 5.04C72.6368 5.424 72.1888 5.616 71.6555 5.616ZM73.0635 8.464V26H70.1515V8.464H73.0635ZM76.9385 17.168C76.9385 15.376 77.3012 13.808 78.0265 12.464C78.7518 11.0987 79.7438 10.0427 81.0025 9.296C82.2825 8.54933 83.7012 8.176 85.2585 8.176C86.7945 8.176 88.1278 8.50667 89.2585 9.168C90.3892 9.82933 91.2318 10.6613 91.7865 11.664V8.464H94.7305V26H91.7865V22.736C91.2105 23.76 90.3465 24.6133 89.1945 25.296C88.0638 25.9573 86.7412 26.288 85.2265 26.288C83.6692 26.288 82.2612 25.904 81.0025 25.136C79.7438 24.368 78.7518 23.2907 78.0265 21.904C77.3012 20.5173 76.9385 18.9387 76.9385 17.168ZM91.7865 17.2C91.7865 15.8773 91.5198 14.7253 90.9865 13.744C90.4532 12.7627 89.7278 12.016 88.8105 11.504C87.9145 10.9707 86.9225 10.704 85.8345 10.704C84.7465 10.704 83.7545 10.96 82.8585 11.472C81.9625 11.984 81.2478 12.7307 80.7145 13.712C80.1812 14.6933 79.9145 15.8453 79.9145 17.168C79.9145 18.512 80.1812 19.6853 80.7145 20.688C81.2478 21.6693 81.9625 22.4267 82.8585 22.96C83.7545 23.472 84.7465 23.728 85.8345 23.728C86.9225 23.728 87.9145 23.472 88.8105 22.96C89.7278 22.4267 90.4532 21.6693 90.9865 20.688C91.5198 19.6853 91.7865 18.5227 91.7865 17.2Z" fill="white"/>
</svg>
